<?xml version="1.0" standalone="no"?>
<svg xmlns="http://www.w3.org/2000/svg" version="1.1" width="1023" height="1023">
	<!-- Created with https://api.qrserver.com (QR Code API, see goQR.me/api for information) -->
	<title>QR Code</title>
	<desc>fqr.test/read.php?id=BvRZr7Wk</desc>
	<rect style="fill:rgb(255, 255, 255);fill-opacity:1" x="0" y="0" width="1023" height="1023" />
	<g id="elements">
		<path style="fill:rgb(0, 0, 0)" d="M 62,62 l 31,0 0,31 -31,0 z M 93,62 l 31,0 0,31 -31,0 z M 124,62 l 31,0 0,31 -31,0 z M 155,62 l 31,0 0,31 -31,0 z M 186,62 l 31,0 0,31 -31,0 z M 217,62 l 31,0 0,31 -31,0 z M 248,62 l 31,0 0,31 -31,0 z M 527,62 l 31,0 0,31 -31,0 z M 558,62 l 31,0 0,31 -31,0 z M 651,62 l 31,0 0,31 -31,0 z M 682,62 l 31,0 0,31 -31,0 z M 744,62 l 31,0 0,31 -31,0 z M 775,62 l 31,0 0,31 -31,0 z M 806,62 l 31,0 0,31 -31,0 z M 837,62 l 31,0 0,31 -31,0 z M 868,62 l 31,0 0,31 -31,0 z M 899,62 l 31,0 0,31 -31,0 z M 930,62 l 31,0 0,31 -31,0 z M 62,93 l 31,0 0,31 -31,0 z M 248,93 l 31,0 0,31 -31,0 z M 341,93 l 31,0 0,31 -31,0 z M 372,93 l 31,0 0,31 -31,0 z M 403,93 l 31,0 0,31 -31,0 z M 589,93 l 31,0 0,31 -31,0 z M 744,93 l 31,0 0,31 -31,0 z M 930,93 l 31,0 0,31 -31,0 z M 62,124 l 31,0 0,31 -31,0 z M 124,124 l 31,0 0,31 -31,0 z M 155,124 l 31,0 0,31 -31,0 z M 186,124 l 31,0 0,31 -31,0 z M 248,124 l 31,0 0,31 -31,0 z M 310,124 l 31,0 0,31 -31,0 z M 341,124 l 31,0 0,31 -31,0 z M 372,124 l 31,0 0,31 -31,0 z M 434,124 l 31,0 0,31 -31,0 z M 496,124 l 31,0 0,31 -31,0 z M 558,124 l 31,0 0,31 -31,0 z M 620,124 l 31,0 0,31 -31,0 z M 651,124 l 31,0 0,31 -31,0 z M 744,124 l 31,0 0,31 -31,0 z M 806,124 l 31,0 0,31 -31,0 z M 837,124 l 31,0 0,31 -31,0 z M 868,124 l 31,0 0,31 -31,0 z M 930,124 l 31,0 0,31 -31,0 z M 62,155 l 31,0 0,31 -31,0 z M 124,155 l 31,0 0,31 -31,0 z M 155,155 l 31,0 0,31 -31,0 z M 186,155 l 31,0 0,31 -31,0 z M 248,155 l 31,0 0,31 -31,0 z M 310,155 l 31,0 0,31 -31,0 z M 372,155 l 31,0 0,31 -31,0 z M 558,155 l 31,0 0,31 -31,0 z M 744,155 l 31,0 0,31 -31,0 z M 806,155 l 31,0 0,31 -31,0 z M 837,155 l 31,0 0,31 -31,0 z M 868,155 l 31,0 0,31 -31,0 z M 930,155 l 31,0 0,31 -31,0 z M 62,186 l 31,0 0,31 -31,0 z M 124,186 l 31,0 0,31 -31,0 z M 155,186 l 31,0 0,31 -31,0 z M 186,186 l 31,0 0,31 -31,0 z M 248,186 l 31,0 0,31 -31,0 z M 310,186 l 31,0 0,31 -31,0 z M 465,186 l 31,0 0,31 -31,0 z M 496,186 l 31,0 0,31 -31,0 z M 527,186 l 31,0 0,31 -31,0 z M 682,186 l 31,0 0,31 -31,0 z M 744,186 l 31,0 0,31 -31,0 z M 806,186 l 31,0 0,31 -31,0 z M 837,186 l 31,0 0,31 -31,0 z M 868,186 l 31,0 0,31 -31,0 z M 930,186 l 31,0 0,31 -31,0 z M 62,217 l 31,0 0,31 -31,0 z M 248,217 l 31,0 0,31 -31,0 z M 310,217 l 31,0 0,31 -31,0 z M 341,217 l 31,0 0,31 -31,0 z M 372,217 l 31,0 0,31 -31,0 z M 403,217 l 31,0 0,31 -31,0 z M 465,217 l 31,0 0,31 -31,0 z M 496,217 l 31,0 0,31 -31,0 z M 527,217 l 31,0 0,31 -31,0 z M 558,217 l 31,0 0,31 -31,0 z M 589,217 l 31,0 0,31 -31,0 z M 620,217 l 31,0 0,31 -31,0 z M 682,217 l 31,0 0,31 -31,0 z M 744,217 l 31,0 0,31 -31,0 z M 930,217 l 31,0 0,31 -31,0 z M 62,248 l 31,0 0,31 -31,0 z M 93,248 l 31,0 0,31 -31,0 z M 124,248 l 31,0 0,31 -31,0 z M 155,248 l 31,0 0,31 -31,0 z M 186,248 l 31,0 0,31 -31,0 z M 217,248 l 31,0 0,31 -31,0 z M 248,248 l 31,0 0,31 -31,0 z M 310,248 l 31,0 0,31 -31,0 z M 372,248 l 31,0 0,31 -31,0 z M 434,248 l 31,0 0,31 -31,0 z M 496,248 l 31,0 0,31 -31,0 z M 558,248 l 31,0 0,31 -31,0 z M 620,248 l 31,0 0,31 -31,0 z M 682,248 l 31,0 0,31 -31,0 z M 744,248 l 31,0 0,31 -31,0 z M 775,248 l 31,0 0,31 -31,0 z M 806,248 l 31,0 0,31 -31,0 z M 837,248 l 31,0 0,31 -31,0 z M 868,248 l 31,0 0,31 -31,0 z M 899,248 l 31,0 0,31 -31,0 z M 930,248 l 31,0 0,31 -31,0 z M 310,279 l 31,0 0,31 -31,0 z M 341,279 l 31,0 0,31 -31,0 z M 372,279 l 31,0 0,31 -31,0 z M 403,279 l 31,0 0,31 -31,0 z M 465,279 l 31,0 0,31 -31,0 z M 527,279 l 31,0 0,31 -31,0 z M 620,279 l 31,0 0,31 -31,0 z M 682,279 l 31,0 0,31 -31,0 z M 62,310 l 31,0 0,31 -31,0 z M 124,310 l 31,0 0,31 -31,0 z M 155,310 l 31,0 0,31 -31,0 z M 186,310 l 31,0 0,31 -31,0 z M 217,310 l 31,0 0,31 -31,0 z M 248,310 l 31,0 0,31 -31,0 z M 341,310 l 31,0 0,31 -31,0 z M 403,310 l 31,0 0,31 -31,0 z M 496,310 l 31,0 0,31 -31,0 z M 527,310 l 31,0 0,31 -31,0 z M 651,310 l 31,0 0,31 -31,0 z M 682,310 l 31,0 0,31 -31,0 z M 744,310 l 31,0 0,31 -31,0 z M 775,310 l 31,0 0,31 -31,0 z M 806,310 l 31,0 0,31 -31,0 z M 837,310 l 31,0 0,31 -31,0 z M 868,310 l 31,0 0,31 -31,0 z M 155,341 l 31,0 0,31 -31,0 z M 186,341 l 31,0 0,31 -31,0 z M 279,341 l 31,0 0,31 -31,0 z M 310,341 l 31,0 0,31 -31,0 z M 341,341 l 31,0 0,31 -31,0 z M 372,341 l 31,0 0,31 -31,0 z M 527,341 l 31,0 0,31 -31,0 z M 558,341 l 31,0 0,31 -31,0 z M 589,341 l 31,0 0,31 -31,0 z M 651,341 l 31,0 0,31 -31,0 z M 713,341 l 31,0 0,31 -31,0 z M 744,341 l 31,0 0,31 -31,0 z M 775,341 l 31,0 0,31 -31,0 z M 806,341 l 31,0 0,31 -31,0 z M 837,341 l 31,0 0,31 -31,0 z M 868,341 l 31,0 0,31 -31,0 z M 899,341 l 31,0 0,31 -31,0 z M 930,341 l 31,0 0,31 -31,0 z M 93,372 l 31,0 0,31 -31,0 z M 124,372 l 31,0 0,31 -31,0 z M 155,372 l 31,0 0,31 -31,0 z M 217,372 l 31,0 0,31 -31,0 z M 248,372 l 31,0 0,31 -31,0 z M 310,372 l 31,0 0,31 -31,0 z M 434,372 l 31,0 0,31 -31,0 z M 589,372 l 31,0 0,31 -31,0 z M 620,372 l 31,0 0,31 -31,0 z M 775,372 l 31,0 0,31 -31,0 z M 806,372 l 31,0 0,31 -31,0 z M 868,372 l 31,0 0,31 -31,0 z M 899,372 l 31,0 0,31 -31,0 z M 279,403 l 31,0 0,31 -31,0 z M 310,403 l 31,0 0,31 -31,0 z M 341,403 l 31,0 0,31 -31,0 z M 403,403 l 31,0 0,31 -31,0 z M 496,403 l 31,0 0,31 -31,0 z M 558,403 l 31,0 0,31 -31,0 z M 620,403 l 31,0 0,31 -31,0 z M 682,403 l 31,0 0,31 -31,0 z M 713,403 l 31,0 0,31 -31,0 z M 806,403 l 31,0 0,31 -31,0 z M 837,403 l 31,0 0,31 -31,0 z M 899,403 l 31,0 0,31 -31,0 z M 930,403 l 31,0 0,31 -31,0 z M 124,434 l 31,0 0,31 -31,0 z M 155,434 l 31,0 0,31 -31,0 z M 186,434 l 31,0 0,31 -31,0 z M 217,434 l 31,0 0,31 -31,0 z M 248,434 l 31,0 0,31 -31,0 z M 279,434 l 31,0 0,31 -31,0 z M 310,434 l 31,0 0,31 -31,0 z M 341,434 l 31,0 0,31 -31,0 z M 403,434 l 31,0 0,31 -31,0 z M 558,434 l 31,0 0,31 -31,0 z M 589,434 l 31,0 0,31 -31,0 z M 713,434 l 31,0 0,31 -31,0 z M 837,434 l 31,0 0,31 -31,0 z M 868,434 l 31,0 0,31 -31,0 z M 899,434 l 31,0 0,31 -31,0 z M 93,465 l 31,0 0,31 -31,0 z M 124,465 l 31,0 0,31 -31,0 z M 155,465 l 31,0 0,31 -31,0 z M 186,465 l 31,0 0,31 -31,0 z M 279,465 l 31,0 0,31 -31,0 z M 372,465 l 31,0 0,31 -31,0 z M 434,465 l 31,0 0,31 -31,0 z M 465,465 l 31,0 0,31 -31,0 z M 496,465 l 31,0 0,31 -31,0 z M 527,465 l 31,0 0,31 -31,0 z M 651,465 l 31,0 0,31 -31,0 z M 682,465 l 31,0 0,31 -31,0 z M 713,465 l 31,0 0,31 -31,0 z M 744,465 l 31,0 0,31 -31,0 z M 775,465 l 31,0 0,31 -31,0 z M 806,465 l 31,0 0,31 -31,0 z M 837,465 l 31,0 0,31 -31,0 z M 930,465 l 31,0 0,31 -31,0 z M 62,496 l 31,0 0,31 -31,0 z M 155,496 l 31,0 0,31 -31,0 z M 217,496 l 31,0 0,31 -31,0 z M 248,496 l 31,0 0,31 -31,0 z M 310,496 l 31,0 0,31 -31,0 z M 341,496 l 31,0 0,31 -31,0 z M 434,496 l 31,0 0,31 -31,0 z M 465,496 l 31,0 0,31 -31,0 z M 496,496 l 31,0 0,31 -31,0 z M 527,496 l 31,0 0,31 -31,0 z M 558,496 l 31,0 0,31 -31,0 z M 589,496 l 31,0 0,31 -31,0 z M 620,496 l 31,0 0,31 -31,0 z M 682,496 l 31,0 0,31 -31,0 z M 744,496 l 31,0 0,31 -31,0 z M 775,496 l 31,0 0,31 -31,0 z M 806,496 l 31,0 0,31 -31,0 z M 62,527 l 31,0 0,31 -31,0 z M 93,527 l 31,0 0,31 -31,0 z M 155,527 l 31,0 0,31 -31,0 z M 186,527 l 31,0 0,31 -31,0 z M 217,527 l 31,0 0,31 -31,0 z M 372,527 l 31,0 0,31 -31,0 z M 403,527 l 31,0 0,31 -31,0 z M 465,527 l 31,0 0,31 -31,0 z M 527,527 l 31,0 0,31 -31,0 z M 620,527 l 31,0 0,31 -31,0 z M 713,527 l 31,0 0,31 -31,0 z M 744,527 l 31,0 0,31 -31,0 z M 775,527 l 31,0 0,31 -31,0 z M 806,527 l 31,0 0,31 -31,0 z M 837,527 l 31,0 0,31 -31,0 z M 62,558 l 31,0 0,31 -31,0 z M 93,558 l 31,0 0,31 -31,0 z M 155,558 l 31,0 0,31 -31,0 z M 186,558 l 31,0 0,31 -31,0 z M 248,558 l 31,0 0,31 -31,0 z M 372,558 l 31,0 0,31 -31,0 z M 403,558 l 31,0 0,31 -31,0 z M 496,558 l 31,0 0,31 -31,0 z M 527,558 l 31,0 0,31 -31,0 z M 589,558 l 31,0 0,31 -31,0 z M 620,558 l 31,0 0,31 -31,0 z M 651,558 l 31,0 0,31 -31,0 z M 868,558 l 31,0 0,31 -31,0 z M 899,558 l 31,0 0,31 -31,0 z M 62,589 l 31,0 0,31 -31,0 z M 93,589 l 31,0 0,31 -31,0 z M 124,589 l 31,0 0,31 -31,0 z M 155,589 l 31,0 0,31 -31,0 z M 372,589 l 31,0 0,31 -31,0 z M 403,589 l 31,0 0,31 -31,0 z M 434,589 l 31,0 0,31 -31,0 z M 527,589 l 31,0 0,31 -31,0 z M 558,589 l 31,0 0,31 -31,0 z M 651,589 l 31,0 0,31 -31,0 z M 682,589 l 31,0 0,31 -31,0 z M 744,589 l 31,0 0,31 -31,0 z M 775,589 l 31,0 0,31 -31,0 z M 806,589 l 31,0 0,31 -31,0 z M 837,589 l 31,0 0,31 -31,0 z M 930,589 l 31,0 0,31 -31,0 z M 62,620 l 31,0 0,31 -31,0 z M 124,620 l 31,0 0,31 -31,0 z M 155,620 l 31,0 0,31 -31,0 z M 186,620 l 31,0 0,31 -31,0 z M 217,620 l 31,0 0,31 -31,0 z M 248,620 l 31,0 0,31 -31,0 z M 279,620 l 31,0 0,31 -31,0 z M 372,620 l 31,0 0,31 -31,0 z M 434,620 l 31,0 0,31 -31,0 z M 589,620 l 31,0 0,31 -31,0 z M 682,620 l 31,0 0,31 -31,0 z M 713,620 l 31,0 0,31 -31,0 z M 837,620 l 31,0 0,31 -31,0 z M 62,651 l 31,0 0,31 -31,0 z M 155,651 l 31,0 0,31 -31,0 z M 279,651 l 31,0 0,31 -31,0 z M 310,651 l 31,0 0,31 -31,0 z M 372,651 l 31,0 0,31 -31,0 z M 434,651 l 31,0 0,31 -31,0 z M 496,651 l 31,0 0,31 -31,0 z M 558,651 l 31,0 0,31 -31,0 z M 651,651 l 31,0 0,31 -31,0 z M 682,651 l 31,0 0,31 -31,0 z M 713,651 l 31,0 0,31 -31,0 z M 806,651 l 31,0 0,31 -31,0 z M 837,651 l 31,0 0,31 -31,0 z M 899,651 l 31,0 0,31 -31,0 z M 930,651 l 31,0 0,31 -31,0 z M 62,682 l 31,0 0,31 -31,0 z M 186,682 l 31,0 0,31 -31,0 z M 248,682 l 31,0 0,31 -31,0 z M 279,682 l 31,0 0,31 -31,0 z M 310,682 l 31,0 0,31 -31,0 z M 341,682 l 31,0 0,31 -31,0 z M 372,682 l 31,0 0,31 -31,0 z M 403,682 l 31,0 0,31 -31,0 z M 558,682 l 31,0 0,31 -31,0 z M 651,682 l 31,0 0,31 -31,0 z M 682,682 l 31,0 0,31 -31,0 z M 713,682 l 31,0 0,31 -31,0 z M 744,682 l 31,0 0,31 -31,0 z M 775,682 l 31,0 0,31 -31,0 z M 806,682 l 31,0 0,31 -31,0 z M 837,682 l 31,0 0,31 -31,0 z M 868,682 l 31,0 0,31 -31,0 z M 310,713 l 31,0 0,31 -31,0 z M 341,713 l 31,0 0,31 -31,0 z M 372,713 l 31,0 0,31 -31,0 z M 465,713 l 31,0 0,31 -31,0 z M 496,713 l 31,0 0,31 -31,0 z M 527,713 l 31,0 0,31 -31,0 z M 651,713 l 31,0 0,31 -31,0 z M 682,713 l 31,0 0,31 -31,0 z M 806,713 l 31,0 0,31 -31,0 z M 899,713 l 31,0 0,31 -31,0 z M 930,713 l 31,0 0,31 -31,0 z M 62,744 l 31,0 0,31 -31,0 z M 93,744 l 31,0 0,31 -31,0 z M 124,744 l 31,0 0,31 -31,0 z M 155,744 l 31,0 0,31 -31,0 z M 186,744 l 31,0 0,31 -31,0 z M 217,744 l 31,0 0,31 -31,0 z M 248,744 l 31,0 0,31 -31,0 z M 434,744 l 31,0 0,31 -31,0 z M 465,744 l 31,0 0,31 -31,0 z M 496,744 l 31,0 0,31 -31,0 z M 527,744 l 31,0 0,31 -31,0 z M 558,744 l 31,0 0,31 -31,0 z M 589,744 l 31,0 0,31 -31,0 z M 651,744 l 31,0 0,31 -31,0 z M 682,744 l 31,0 0,31 -31,0 z M 744,744 l 31,0 0,31 -31,0 z M 806,744 l 31,0 0,31 -31,0 z M 837,744 l 31,0 0,31 -31,0 z M 868,744 l 31,0 0,31 -31,0 z M 62,775 l 31,0 0,31 -31,0 z M 248,775 l 31,0 0,31 -31,0 z M 310,775 l 31,0 0,31 -31,0 z M 341,775 l 31,0 0,31 -31,0 z M 372,775 l 31,0 0,31 -31,0 z M 434,775 l 31,0 0,31 -31,0 z M 465,775 l 31,0 0,31 -31,0 z M 527,775 l 31,0 0,31 -31,0 z M 682,775 l 31,0 0,31 -31,0 z M 806,775 l 31,0 0,31 -31,0 z M 837,775 l 31,0 0,31 -31,0 z M 62,806 l 31,0 0,31 -31,0 z M 124,806 l 31,0 0,31 -31,0 z M 155,806 l 31,0 0,31 -31,0 z M 186,806 l 31,0 0,31 -31,0 z M 248,806 l 31,0 0,31 -31,0 z M 310,806 l 31,0 0,31 -31,0 z M 372,806 l 31,0 0,31 -31,0 z M 434,806 l 31,0 0,31 -31,0 z M 496,806 l 31,0 0,31 -31,0 z M 527,806 l 31,0 0,31 -31,0 z M 589,806 l 31,0 0,31 -31,0 z M 682,806 l 31,0 0,31 -31,0 z M 713,806 l 31,0 0,31 -31,0 z M 744,806 l 31,0 0,31 -31,0 z M 775,806 l 31,0 0,31 -31,0 z M 806,806 l 31,0 0,31 -31,0 z M 837,806 l 31,0 0,31 -31,0 z M 868,806 l 31,0 0,31 -31,0 z M 930,806 l 31,0 0,31 -31,0 z M 62,837 l 31,0 0,31 -31,0 z M 124,837 l 31,0 0,31 -31,0 z M 155,837 l 31,0 0,31 -31,0 z M 186,837 l 31,0 0,31 -31,0 z M 248,837 l 31,0 0,31 -31,0 z M 310,837 l 31,0 0,31 -31,0 z M 372,837 l 31,0 0,31 -31,0 z M 403,837 l 31,0 0,31 -31,0 z M 465,837 l 31,0 0,31 -31,0 z M 527,837 l 31,0 0,31 -31,0 z M 558,837 l 31,0 0,31 -31,0 z M 589,837 l 31,0 0,31 -31,0 z M 620,837 l 31,0 0,31 -31,0 z M 775,837 l 31,0 0,31 -31,0 z M 837,837 l 31,0 0,31 -31,0 z M 62,868 l 31,0 0,31 -31,0 z M 124,868 l 31,0 0,31 -31,0 z M 155,868 l 31,0 0,31 -31,0 z M 186,868 l 31,0 0,31 -31,0 z M 248,868 l 31,0 0,31 -31,0 z M 310,868 l 31,0 0,31 -31,0 z M 341,868 l 31,0 0,31 -31,0 z M 372,868 l 31,0 0,31 -31,0 z M 403,868 l 31,0 0,31 -31,0 z M 434,868 l 31,0 0,31 -31,0 z M 465,868 l 31,0 0,31 -31,0 z M 589,868 l 31,0 0,31 -31,0 z M 620,868 l 31,0 0,31 -31,0 z M 713,868 l 31,0 0,31 -31,0 z M 744,868 l 31,0 0,31 -31,0 z M 775,868 l 31,0 0,31 -31,0 z M 806,868 l 31,0 0,31 -31,0 z M 899,868 l 31,0 0,31 -31,0 z M 62,899 l 31,0 0,31 -31,0 z M 248,899 l 31,0 0,31 -31,0 z M 372,899 l 31,0 0,31 -31,0 z M 434,899 l 31,0 0,31 -31,0 z M 496,899 l 31,0 0,31 -31,0 z M 558,899 l 31,0 0,31 -31,0 z M 651,899 l 31,0 0,31 -31,0 z M 682,899 l 31,0 0,31 -31,0 z M 713,899 l 31,0 0,31 -31,0 z M 744,899 l 31,0 0,31 -31,0 z M 775,899 l 31,0 0,31 -31,0 z M 899,899 l 31,0 0,31 -31,0 z M 62,930 l 31,0 0,31 -31,0 z M 93,930 l 31,0 0,31 -31,0 z M 124,930 l 31,0 0,31 -31,0 z M 155,930 l 31,0 0,31 -31,0 z M 186,930 l 31,0 0,31 -31,0 z M 217,930 l 31,0 0,31 -31,0 z M 248,930 l 31,0 0,31 -31,0 z M 310,930 l 31,0 0,31 -31,0 z M 372,930 l 31,0 0,31 -31,0 z M 434,930 l 31,0 0,31 -31,0 z M 465,930 l 31,0 0,31 -31,0 z M 496,930 l 31,0 0,31 -31,0 z M 620,930 l 31,0 0,31 -31,0 z M 651,930 l 31,0 0,31 -31,0 z M 713,930 l 31,0 0,31 -31,0 z M 775,930 l 31,0 0,31 -31,0 z M 868,930 l 31,0 0,31 -31,0 z " />
	</g>
</svg>
