<?xml version="1.0" standalone="no"?>
<svg xmlns="http://www.w3.org/2000/svg" version="1.1" width="891" height="891">
	<!-- Created with https://api.qrserver.com (QR Code API, see goQR.me/api for information) -->
	<title>QR Code</title>
	<desc>fqr.test/read.php?id=9saH9wP</desc>
	<rect style="fill:rgb(255, 255, 255);fill-opacity:1" x="0" y="0" width="891" height="891" />
	<g id="elements">
		<path style="fill:rgb(0, 0, 0)" d="M 54,54 l 27,0 0,27 -27,0 z M 81,54 l 27,0 0,27 -27,0 z M 108,54 l 27,0 0,27 -27,0 z M 135,54 l 27,0 0,27 -27,0 z M 162,54 l 27,0 0,27 -27,0 z M 189,54 l 27,0 0,27 -27,0 z M 216,54 l 27,0 0,27 -27,0 z M 270,54 l 27,0 0,27 -27,0 z M 297,54 l 27,0 0,27 -27,0 z M 351,54 l 27,0 0,27 -27,0 z M 378,54 l 27,0 0,27 -27,0 z M 459,54 l 27,0 0,27 -27,0 z M 486,54 l 27,0 0,27 -27,0 z M 594,54 l 27,0 0,27 -27,0 z M 648,54 l 27,0 0,27 -27,0 z M 675,54 l 27,0 0,27 -27,0 z M 702,54 l 27,0 0,27 -27,0 z M 729,54 l 27,0 0,27 -27,0 z M 756,54 l 27,0 0,27 -27,0 z M 783,54 l 27,0 0,27 -27,0 z M 810,54 l 27,0 0,27 -27,0 z M 54,81 l 27,0 0,27 -27,0 z M 216,81 l 27,0 0,27 -27,0 z M 378,81 l 27,0 0,27 -27,0 z M 432,81 l 27,0 0,27 -27,0 z M 459,81 l 27,0 0,27 -27,0 z M 486,81 l 27,0 0,27 -27,0 z M 594,81 l 27,0 0,27 -27,0 z M 648,81 l 27,0 0,27 -27,0 z M 810,81 l 27,0 0,27 -27,0 z M 54,108 l 27,0 0,27 -27,0 z M 108,108 l 27,0 0,27 -27,0 z M 135,108 l 27,0 0,27 -27,0 z M 162,108 l 27,0 0,27 -27,0 z M 216,108 l 27,0 0,27 -27,0 z M 378,108 l 27,0 0,27 -27,0 z M 459,108 l 27,0 0,27 -27,0 z M 486,108 l 27,0 0,27 -27,0 z M 567,108 l 27,0 0,27 -27,0 z M 594,108 l 27,0 0,27 -27,0 z M 648,108 l 27,0 0,27 -27,0 z M 702,108 l 27,0 0,27 -27,0 z M 729,108 l 27,0 0,27 -27,0 z M 756,108 l 27,0 0,27 -27,0 z M 810,108 l 27,0 0,27 -27,0 z M 54,135 l 27,0 0,27 -27,0 z M 108,135 l 27,0 0,27 -27,0 z M 135,135 l 27,0 0,27 -27,0 z M 162,135 l 27,0 0,27 -27,0 z M 216,135 l 27,0 0,27 -27,0 z M 351,135 l 27,0 0,27 -27,0 z M 378,135 l 27,0 0,27 -27,0 z M 405,135 l 27,0 0,27 -27,0 z M 459,135 l 27,0 0,27 -27,0 z M 513,135 l 27,0 0,27 -27,0 z M 648,135 l 27,0 0,27 -27,0 z M 702,135 l 27,0 0,27 -27,0 z M 729,135 l 27,0 0,27 -27,0 z M 756,135 l 27,0 0,27 -27,0 z M 810,135 l 27,0 0,27 -27,0 z M 54,162 l 27,0 0,27 -27,0 z M 108,162 l 27,0 0,27 -27,0 z M 135,162 l 27,0 0,27 -27,0 z M 162,162 l 27,0 0,27 -27,0 z M 216,162 l 27,0 0,27 -27,0 z M 270,162 l 27,0 0,27 -27,0 z M 297,162 l 27,0 0,27 -27,0 z M 324,162 l 27,0 0,27 -27,0 z M 351,162 l 27,0 0,27 -27,0 z M 378,162 l 27,0 0,27 -27,0 z M 432,162 l 27,0 0,27 -27,0 z M 459,162 l 27,0 0,27 -27,0 z M 540,162 l 27,0 0,27 -27,0 z M 567,162 l 27,0 0,27 -27,0 z M 594,162 l 27,0 0,27 -27,0 z M 648,162 l 27,0 0,27 -27,0 z M 702,162 l 27,0 0,27 -27,0 z M 729,162 l 27,0 0,27 -27,0 z M 756,162 l 27,0 0,27 -27,0 z M 810,162 l 27,0 0,27 -27,0 z M 54,189 l 27,0 0,27 -27,0 z M 216,189 l 27,0 0,27 -27,0 z M 270,189 l 27,0 0,27 -27,0 z M 378,189 l 27,0 0,27 -27,0 z M 405,189 l 27,0 0,27 -27,0 z M 540,189 l 27,0 0,27 -27,0 z M 648,189 l 27,0 0,27 -27,0 z M 810,189 l 27,0 0,27 -27,0 z M 54,216 l 27,0 0,27 -27,0 z M 81,216 l 27,0 0,27 -27,0 z M 108,216 l 27,0 0,27 -27,0 z M 135,216 l 27,0 0,27 -27,0 z M 162,216 l 27,0 0,27 -27,0 z M 189,216 l 27,0 0,27 -27,0 z M 216,216 l 27,0 0,27 -27,0 z M 270,216 l 27,0 0,27 -27,0 z M 324,216 l 27,0 0,27 -27,0 z M 378,216 l 27,0 0,27 -27,0 z M 432,216 l 27,0 0,27 -27,0 z M 486,216 l 27,0 0,27 -27,0 z M 540,216 l 27,0 0,27 -27,0 z M 594,216 l 27,0 0,27 -27,0 z M 648,216 l 27,0 0,27 -27,0 z M 675,216 l 27,0 0,27 -27,0 z M 702,216 l 27,0 0,27 -27,0 z M 729,216 l 27,0 0,27 -27,0 z M 756,216 l 27,0 0,27 -27,0 z M 783,216 l 27,0 0,27 -27,0 z M 810,216 l 27,0 0,27 -27,0 z M 297,243 l 27,0 0,27 -27,0 z M 324,243 l 27,0 0,27 -27,0 z M 351,243 l 27,0 0,27 -27,0 z M 405,243 l 27,0 0,27 -27,0 z M 432,243 l 27,0 0,27 -27,0 z M 540,243 l 27,0 0,27 -27,0 z M 567,243 l 27,0 0,27 -27,0 z M 81,270 l 27,0 0,27 -27,0 z M 108,270 l 27,0 0,27 -27,0 z M 135,270 l 27,0 0,27 -27,0 z M 162,270 l 27,0 0,27 -27,0 z M 189,270 l 27,0 0,27 -27,0 z M 216,270 l 27,0 0,27 -27,0 z M 243,270 l 27,0 0,27 -27,0 z M 324,270 l 27,0 0,27 -27,0 z M 351,270 l 27,0 0,27 -27,0 z M 432,270 l 27,0 0,27 -27,0 z M 459,270 l 27,0 0,27 -27,0 z M 486,270 l 27,0 0,27 -27,0 z M 540,270 l 27,0 0,27 -27,0 z M 594,270 l 27,0 0,27 -27,0 z M 675,270 l 27,0 0,27 -27,0 z M 702,270 l 27,0 0,27 -27,0 z M 810,270 l 27,0 0,27 -27,0 z M 81,297 l 27,0 0,27 -27,0 z M 135,297 l 27,0 0,27 -27,0 z M 324,297 l 27,0 0,27 -27,0 z M 432,297 l 27,0 0,27 -27,0 z M 459,297 l 27,0 0,27 -27,0 z M 540,297 l 27,0 0,27 -27,0 z M 567,297 l 27,0 0,27 -27,0 z M 594,297 l 27,0 0,27 -27,0 z M 648,297 l 27,0 0,27 -27,0 z M 675,297 l 27,0 0,27 -27,0 z M 702,297 l 27,0 0,27 -27,0 z M 729,297 l 27,0 0,27 -27,0 z M 756,297 l 27,0 0,27 -27,0 z M 810,297 l 27,0 0,27 -27,0 z M 54,324 l 27,0 0,27 -27,0 z M 108,324 l 27,0 0,27 -27,0 z M 189,324 l 27,0 0,27 -27,0 z M 216,324 l 27,0 0,27 -27,0 z M 243,324 l 27,0 0,27 -27,0 z M 270,324 l 27,0 0,27 -27,0 z M 324,324 l 27,0 0,27 -27,0 z M 459,324 l 27,0 0,27 -27,0 z M 486,324 l 27,0 0,27 -27,0 z M 540,324 l 27,0 0,27 -27,0 z M 594,324 l 27,0 0,27 -27,0 z M 675,324 l 27,0 0,27 -27,0 z M 702,324 l 27,0 0,27 -27,0 z M 729,324 l 27,0 0,27 -27,0 z M 756,324 l 27,0 0,27 -27,0 z M 54,351 l 27,0 0,27 -27,0 z M 108,351 l 27,0 0,27 -27,0 z M 135,351 l 27,0 0,27 -27,0 z M 189,351 l 27,0 0,27 -27,0 z M 270,351 l 27,0 0,27 -27,0 z M 432,351 l 27,0 0,27 -27,0 z M 459,351 l 27,0 0,27 -27,0 z M 729,351 l 27,0 0,27 -27,0 z M 783,351 l 27,0 0,27 -27,0 z M 810,351 l 27,0 0,27 -27,0 z M 54,378 l 27,0 0,27 -27,0 z M 135,378 l 27,0 0,27 -27,0 z M 162,378 l 27,0 0,27 -27,0 z M 189,378 l 27,0 0,27 -27,0 z M 216,378 l 27,0 0,27 -27,0 z M 270,378 l 27,0 0,27 -27,0 z M 297,378 l 27,0 0,27 -27,0 z M 378,378 l 27,0 0,27 -27,0 z M 405,378 l 27,0 0,27 -27,0 z M 459,378 l 27,0 0,27 -27,0 z M 486,378 l 27,0 0,27 -27,0 z M 513,378 l 27,0 0,27 -27,0 z M 567,378 l 27,0 0,27 -27,0 z M 594,378 l 27,0 0,27 -27,0 z M 756,378 l 27,0 0,27 -27,0 z M 81,405 l 27,0 0,27 -27,0 z M 108,405 l 27,0 0,27 -27,0 z M 162,405 l 27,0 0,27 -27,0 z M 189,405 l 27,0 0,27 -27,0 z M 243,405 l 27,0 0,27 -27,0 z M 270,405 l 27,0 0,27 -27,0 z M 405,405 l 27,0 0,27 -27,0 z M 459,405 l 27,0 0,27 -27,0 z M 486,405 l 27,0 0,27 -27,0 z M 513,405 l 27,0 0,27 -27,0 z M 540,405 l 27,0 0,27 -27,0 z M 567,405 l 27,0 0,27 -27,0 z M 594,405 l 27,0 0,27 -27,0 z M 648,405 l 27,0 0,27 -27,0 z M 675,405 l 27,0 0,27 -27,0 z M 702,405 l 27,0 0,27 -27,0 z M 810,405 l 27,0 0,27 -27,0 z M 108,432 l 27,0 0,27 -27,0 z M 135,432 l 27,0 0,27 -27,0 z M 189,432 l 27,0 0,27 -27,0 z M 216,432 l 27,0 0,27 -27,0 z M 243,432 l 27,0 0,27 -27,0 z M 351,432 l 27,0 0,27 -27,0 z M 405,432 l 27,0 0,27 -27,0 z M 486,432 l 27,0 0,27 -27,0 z M 513,432 l 27,0 0,27 -27,0 z M 594,432 l 27,0 0,27 -27,0 z M 621,432 l 27,0 0,27 -27,0 z M 702,432 l 27,0 0,27 -27,0 z M 729,432 l 27,0 0,27 -27,0 z M 783,432 l 27,0 0,27 -27,0 z M 81,459 l 27,0 0,27 -27,0 z M 108,459 l 27,0 0,27 -27,0 z M 135,459 l 27,0 0,27 -27,0 z M 162,459 l 27,0 0,27 -27,0 z M 243,459 l 27,0 0,27 -27,0 z M 405,459 l 27,0 0,27 -27,0 z M 513,459 l 27,0 0,27 -27,0 z M 540,459 l 27,0 0,27 -27,0 z M 567,459 l 27,0 0,27 -27,0 z M 594,459 l 27,0 0,27 -27,0 z M 648,459 l 27,0 0,27 -27,0 z M 675,459 l 27,0 0,27 -27,0 z M 702,459 l 27,0 0,27 -27,0 z M 729,459 l 27,0 0,27 -27,0 z M 783,459 l 27,0 0,27 -27,0 z M 54,486 l 27,0 0,27 -27,0 z M 81,486 l 27,0 0,27 -27,0 z M 135,486 l 27,0 0,27 -27,0 z M 162,486 l 27,0 0,27 -27,0 z M 216,486 l 27,0 0,27 -27,0 z M 243,486 l 27,0 0,27 -27,0 z M 270,486 l 27,0 0,27 -27,0 z M 405,486 l 27,0 0,27 -27,0 z M 432,486 l 27,0 0,27 -27,0 z M 486,486 l 27,0 0,27 -27,0 z M 567,486 l 27,0 0,27 -27,0 z M 594,486 l 27,0 0,27 -27,0 z M 675,486 l 27,0 0,27 -27,0 z M 729,486 l 27,0 0,27 -27,0 z M 756,486 l 27,0 0,27 -27,0 z M 783,486 l 27,0 0,27 -27,0 z M 54,513 l 27,0 0,27 -27,0 z M 135,513 l 27,0 0,27 -27,0 z M 162,513 l 27,0 0,27 -27,0 z M 270,513 l 27,0 0,27 -27,0 z M 324,513 l 27,0 0,27 -27,0 z M 378,513 l 27,0 0,27 -27,0 z M 432,513 l 27,0 0,27 -27,0 z M 459,513 l 27,0 0,27 -27,0 z M 540,513 l 27,0 0,27 -27,0 z M 567,513 l 27,0 0,27 -27,0 z M 621,513 l 27,0 0,27 -27,0 z M 648,513 l 27,0 0,27 -27,0 z M 702,513 l 27,0 0,27 -27,0 z M 756,513 l 27,0 0,27 -27,0 z M 783,513 l 27,0 0,27 -27,0 z M 810,513 l 27,0 0,27 -27,0 z M 54,540 l 27,0 0,27 -27,0 z M 108,540 l 27,0 0,27 -27,0 z M 135,540 l 27,0 0,27 -27,0 z M 162,540 l 27,0 0,27 -27,0 z M 189,540 l 27,0 0,27 -27,0 z M 216,540 l 27,0 0,27 -27,0 z M 243,540 l 27,0 0,27 -27,0 z M 270,540 l 27,0 0,27 -27,0 z M 324,540 l 27,0 0,27 -27,0 z M 351,540 l 27,0 0,27 -27,0 z M 405,540 l 27,0 0,27 -27,0 z M 459,540 l 27,0 0,27 -27,0 z M 486,540 l 27,0 0,27 -27,0 z M 621,540 l 27,0 0,27 -27,0 z M 675,540 l 27,0 0,27 -27,0 z M 702,540 l 27,0 0,27 -27,0 z M 729,540 l 27,0 0,27 -27,0 z M 54,567 l 27,0 0,27 -27,0 z M 135,567 l 27,0 0,27 -27,0 z M 243,567 l 27,0 0,27 -27,0 z M 297,567 l 27,0 0,27 -27,0 z M 324,567 l 27,0 0,27 -27,0 z M 351,567 l 27,0 0,27 -27,0 z M 405,567 l 27,0 0,27 -27,0 z M 432,567 l 27,0 0,27 -27,0 z M 459,567 l 27,0 0,27 -27,0 z M 540,567 l 27,0 0,27 -27,0 z M 648,567 l 27,0 0,27 -27,0 z M 675,567 l 27,0 0,27 -27,0 z M 729,567 l 27,0 0,27 -27,0 z M 783,567 l 27,0 0,27 -27,0 z M 54,594 l 27,0 0,27 -27,0 z M 135,594 l 27,0 0,27 -27,0 z M 162,594 l 27,0 0,27 -27,0 z M 189,594 l 27,0 0,27 -27,0 z M 216,594 l 27,0 0,27 -27,0 z M 243,594 l 27,0 0,27 -27,0 z M 324,594 l 27,0 0,27 -27,0 z M 405,594 l 27,0 0,27 -27,0 z M 459,594 l 27,0 0,27 -27,0 z M 513,594 l 27,0 0,27 -27,0 z M 540,594 l 27,0 0,27 -27,0 z M 567,594 l 27,0 0,27 -27,0 z M 594,594 l 27,0 0,27 -27,0 z M 621,594 l 27,0 0,27 -27,0 z M 648,594 l 27,0 0,27 -27,0 z M 675,594 l 27,0 0,27 -27,0 z M 702,594 l 27,0 0,27 -27,0 z M 756,594 l 27,0 0,27 -27,0 z M 810,594 l 27,0 0,27 -27,0 z M 270,621 l 27,0 0,27 -27,0 z M 297,621 l 27,0 0,27 -27,0 z M 351,621 l 27,0 0,27 -27,0 z M 378,621 l 27,0 0,27 -27,0 z M 405,621 l 27,0 0,27 -27,0 z M 432,621 l 27,0 0,27 -27,0 z M 486,621 l 27,0 0,27 -27,0 z M 540,621 l 27,0 0,27 -27,0 z M 594,621 l 27,0 0,27 -27,0 z M 702,621 l 27,0 0,27 -27,0 z M 810,621 l 27,0 0,27 -27,0 z M 54,648 l 27,0 0,27 -27,0 z M 81,648 l 27,0 0,27 -27,0 z M 108,648 l 27,0 0,27 -27,0 z M 135,648 l 27,0 0,27 -27,0 z M 162,648 l 27,0 0,27 -27,0 z M 189,648 l 27,0 0,27 -27,0 z M 216,648 l 27,0 0,27 -27,0 z M 270,648 l 27,0 0,27 -27,0 z M 297,648 l 27,0 0,27 -27,0 z M 351,648 l 27,0 0,27 -27,0 z M 378,648 l 27,0 0,27 -27,0 z M 405,648 l 27,0 0,27 -27,0 z M 459,648 l 27,0 0,27 -27,0 z M 540,648 l 27,0 0,27 -27,0 z M 567,648 l 27,0 0,27 -27,0 z M 594,648 l 27,0 0,27 -27,0 z M 648,648 l 27,0 0,27 -27,0 z M 702,648 l 27,0 0,27 -27,0 z M 756,648 l 27,0 0,27 -27,0 z M 54,675 l 27,0 0,27 -27,0 z M 216,675 l 27,0 0,27 -27,0 z M 270,675 l 27,0 0,27 -27,0 z M 297,675 l 27,0 0,27 -27,0 z M 324,675 l 27,0 0,27 -27,0 z M 351,675 l 27,0 0,27 -27,0 z M 378,675 l 27,0 0,27 -27,0 z M 432,675 l 27,0 0,27 -27,0 z M 459,675 l 27,0 0,27 -27,0 z M 594,675 l 27,0 0,27 -27,0 z M 702,675 l 27,0 0,27 -27,0 z M 783,675 l 27,0 0,27 -27,0 z M 54,702 l 27,0 0,27 -27,0 z M 108,702 l 27,0 0,27 -27,0 z M 135,702 l 27,0 0,27 -27,0 z M 162,702 l 27,0 0,27 -27,0 z M 216,702 l 27,0 0,27 -27,0 z M 270,702 l 27,0 0,27 -27,0 z M 297,702 l 27,0 0,27 -27,0 z M 324,702 l 27,0 0,27 -27,0 z M 351,702 l 27,0 0,27 -27,0 z M 432,702 l 27,0 0,27 -27,0 z M 459,702 l 27,0 0,27 -27,0 z M 540,702 l 27,0 0,27 -27,0 z M 594,702 l 27,0 0,27 -27,0 z M 621,702 l 27,0 0,27 -27,0 z M 648,702 l 27,0 0,27 -27,0 z M 675,702 l 27,0 0,27 -27,0 z M 702,702 l 27,0 0,27 -27,0 z M 756,702 l 27,0 0,27 -27,0 z M 783,702 l 27,0 0,27 -27,0 z M 810,702 l 27,0 0,27 -27,0 z M 54,729 l 27,0 0,27 -27,0 z M 108,729 l 27,0 0,27 -27,0 z M 135,729 l 27,0 0,27 -27,0 z M 162,729 l 27,0 0,27 -27,0 z M 216,729 l 27,0 0,27 -27,0 z M 270,729 l 27,0 0,27 -27,0 z M 351,729 l 27,0 0,27 -27,0 z M 405,729 l 27,0 0,27 -27,0 z M 459,729 l 27,0 0,27 -27,0 z M 486,729 l 27,0 0,27 -27,0 z M 513,729 l 27,0 0,27 -27,0 z M 675,729 l 27,0 0,27 -27,0 z M 729,729 l 27,0 0,27 -27,0 z M 54,756 l 27,0 0,27 -27,0 z M 108,756 l 27,0 0,27 -27,0 z M 135,756 l 27,0 0,27 -27,0 z M 162,756 l 27,0 0,27 -27,0 z M 216,756 l 27,0 0,27 -27,0 z M 270,756 l 27,0 0,27 -27,0 z M 324,756 l 27,0 0,27 -27,0 z M 378,756 l 27,0 0,27 -27,0 z M 405,756 l 27,0 0,27 -27,0 z M 432,756 l 27,0 0,27 -27,0 z M 513,756 l 27,0 0,27 -27,0 z M 567,756 l 27,0 0,27 -27,0 z M 648,756 l 27,0 0,27 -27,0 z M 675,756 l 27,0 0,27 -27,0 z M 702,756 l 27,0 0,27 -27,0 z M 783,756 l 27,0 0,27 -27,0 z M 54,783 l 27,0 0,27 -27,0 z M 216,783 l 27,0 0,27 -27,0 z M 270,783 l 27,0 0,27 -27,0 z M 324,783 l 27,0 0,27 -27,0 z M 432,783 l 27,0 0,27 -27,0 z M 486,783 l 27,0 0,27 -27,0 z M 540,783 l 27,0 0,27 -27,0 z M 621,783 l 27,0 0,27 -27,0 z M 783,783 l 27,0 0,27 -27,0 z M 54,810 l 27,0 0,27 -27,0 z M 81,810 l 27,0 0,27 -27,0 z M 108,810 l 27,0 0,27 -27,0 z M 135,810 l 27,0 0,27 -27,0 z M 162,810 l 27,0 0,27 -27,0 z M 189,810 l 27,0 0,27 -27,0 z M 216,810 l 27,0 0,27 -27,0 z M 324,810 l 27,0 0,27 -27,0 z M 378,810 l 27,0 0,27 -27,0 z M 432,810 l 27,0 0,27 -27,0 z M 486,810 l 27,0 0,27 -27,0 z M 513,810 l 27,0 0,27 -27,0 z M 567,810 l 27,0 0,27 -27,0 z M 675,810 l 27,0 0,27 -27,0 z M 729,810 l 27,0 0,27 -27,0 z M 756,810 l 27,0 0,27 -27,0 z " />
	</g>
</svg>
